<?xml version="1.0" encoding="utf-8"?>
<!-- Generator: Adobe Illustrator 27.3.1, SVG Export Plug-In . SVG Version: 6.00 Build 0)  -->
<svg version="1.1" id="레이어_1" xmlns="http://www.w3.org/2000/svg" xmlns:xlink="http://www.w3.org/1999/xlink" x="0px"
	 y="0px" viewBox="0 0 1600 435.2" style="enable-background:new 0 0 1600 435.2;" xml:space="preserve">
<style type="text/css">
	.st0{fill:#306CAF;}
	.st1{fill:none;}
	.st2{fill:#231815;}
	.st3{fill:#717071;}
	.st4{fill:#003989;}
	.st5{fill:#FFFFFF;}
</style>
<g>
	<g>
		<polygon class="st0" points="720.15,158.33 843.31,158.33 843.31,187.88 737.96,187.88 737.96,209.01 945.9,209.01 945.9,270.67
			967.97,270.67 967.97,187.88 865.39,187.88 865.39,158.33 988.55,158.33 988.55,137.2 720.15,137.2 		"/>
		<path class="st0" d="M967.36,0.82h-22.07v39.32H763.72V0.82h-22.07v112.66h225.71V0.82z M945.29,92.66H763.72v-32h181.57V92.66z"
			/>
		<polygon class="st0" points="1225.58,164.8 1247.35,164.8 1247.35,0.84 1062.49,0.84 1062.49,21.36 1225.58,21.36 1225.58,81
			1062.49,81 1062.49,101.53 1225.58,101.53 		"/>
		<path class="st0" d="M1452.17,18.37c-12.13-9.4-26.25-14.17-41.97-14.17c-15.72,0-29.83,4.77-41.97,14.16
			c-12.02,9.31-21.51,23.49-28.23,42.16c-6.6,18.33-9.95,41.12-9.95,67.73c0,26.62,3.35,49.41,9.95,67.74
			c6.71,18.67,16.21,32.85,28.23,42.17c12.14,9.39,26.25,14.15,41.97,14.15c15.71,0,29.83-4.76,41.96-14.15
			c12.02-9.31,21.51-23.49,28.23-42.17c6.6-18.34,9.95-41.13,9.95-67.74c0-26.6-3.35-49.39-9.95-67.73
			C1473.68,41.84,1464.18,27.66,1452.17,18.37z M1460.22,186.25c-5.04,15.18-12.01,26.63-20.73,34.04
			c-8.53,7.22-18.38,10.89-29.29,10.89c-10.9,0-20.76-3.67-29.29-10.89c-8.73-7.41-15.7-18.86-20.73-34.04
			c-5.14-15.51-7.75-35.02-7.75-58c0-22.96,2.6-42.47,7.75-57.99c5.04-15.19,12.01-26.64,20.73-34.04
			c8.53-7.22,18.38-10.89,29.29-10.89c10.9,0,20.76,3.67,29.29,10.89c8.71,7.39,15.68,18.84,20.73,34.04
			c5.14,15.54,7.75,35.05,7.75,57.99C1467.97,151.21,1465.36,170.72,1460.22,186.25z"/>
		<polygon class="st0" points="1558.53,117.68 1558.53,0.84 1536.46,0.84 1536.46,270.67 1558.53,270.67 1558.53,138.82
			1600,138.82 1600,117.68 		"/>
		<path class="st0" d="M1226.28,235.63c-19.71,8.88-38.79,12.84-56.07,13.92V137.2h-21.82v112.27
			c-32.91-2.27-55.35-13.46-56.05-13.83c-24.67-13.31-44.05-31.83-56.2-55.43l-19.4,9.98c12.21,23.73,30.74,42.94,54.02,57.56
			c0.05,0.03,0.22,0.13,0.47,0.28c0.7,0.43,1.46,0.8,2.17,1.22c14.9,8.17,90.34,44.69,174.47-1.52
			c23.26-14.62,41.78-33.82,53.99-57.53l-19.4-9.98C1270.31,203.81,1250.94,222.31,1226.28,235.63z"/>
	</g>
	<g>
		<path class="st1" d="M1426.9,429.51c7.06,0,9.58-9.69,9.58-18.75c0-4.45-0.69-18.98-9.58-18.98c-8.77,0-9.45,14.53-9.45,18.98
			C1417.44,419.83,1419.93,429.51,1426.9,429.51z"/>
		<path class="st1" d="M1345.74,429.51c7.06,0,9.58-9.69,9.58-18.75c0-4.45-0.69-18.98-9.58-18.98c-8.77,0-9.45,14.53-9.45,18.98
			C1336.28,419.83,1338.77,429.51,1345.74,429.51z"/>
		<path class="st2" d="M789.73,407.58c-6.54-1.79-10.9-4-10.9-8.98c0-6.03,4.92-6.93,7.85-6.93c5.51,0,10,3.05,13.75,9.33l0.59,0.99
			l2.54-1.68l-4.4-12.18l-3.88,1.45c-0.04,0-0.1,0.01-0.17,0.01c-0.03,0-0.07,0-0.1,0c-0.4,0-1.05-0.2-1.83-0.45
			c-1.49-0.46-3.53-1.1-6.26-1.1c-9.86,0-13.37,5.96-13.37,11.54c0,8.02,7.09,11.21,14.04,13.27c8.8,2.56,11.54,4.13,11.54,8.98
			c0,5.32-2.98,7.91-9.11,7.91c-7.82,0-12.29-5.45-14.98-9.54l-0.49-0.75l-2.97,1.18l4.88,13.27l1.17-0.85
			c1.24-0.9,2.67-1.51,3.55-1.51c0.32,0,1.17,0.26,1.97,0.51c1.81,0.56,4.29,1.32,7.03,1.32c9.02,0,14.41-4.72,14.41-12.63
			C804.59,412.35,797.25,409.64,789.73,407.58z"/>
		<path class="st2" d="M854.81,392.65h1.1c4.64,0,4.87,0.95,4.87,2.63v31.27c0,0.97,0,2.29-4.87,2.29h-1.1v3.63h17.69v-3.63h-1.1
			c-4.87,0-4.87-1.32-4.87-2.29v-31.27c0-1.68,0.23-2.63,4.87-2.63h1.1v-3.64h-17.69V392.65z"/>
		<path class="st2" d="M948.71,392.65h1.1c4.87,0,4.87,1.14,4.87,2.06v26.68l-24.52-32.37h-9.39v3.64h1.1
			c4.06,0,4.35,1.08,4.35,2.86v30.46c0,1.78-0.29,2.86-4.35,2.86h-1.1v3.63h15.34v-3.63h-1.1c-4.63,0-4.87-1.09-4.87-2.86v-27.64
			l25.83,34.41h2.57V394.7c0-0.72,0-2.06,4.41-2.06h1.1v-3.64h-15.33V392.65z"/>
		<path class="st2" d="M1045.95,419.26c-3.26,6.26-7.23,9.05-12.86,9.05c-8.37,0-14.44-7.5-14.44-17.83
			c0-11.08,5.04-18.81,12.27-18.81c5.22,0,9.99,3.12,14.18,9.27l0.53,0.8l2.67-1.33l-4.68-12.41l-4.73,1.53l-0.55-0.18
			c-2.24-0.73-4.02-1.31-7.54-1.31c-10.58,0-18.25,9.44-18.25,22.44c0,15.82,9.66,22.9,19.23,22.9c7.97,0,13.75-4.28,17.19-12.73
			l0.41-0.99l-2.95-1.31L1045.95,419.26z"/>
		<path class="st2" d="M1131.95,420.17c-4.56,6.32-8.47,8.66-14.43,8.66h-5.39c-2.9,0-3.49-1.14-3.49-2.86v-14.28h7.62
			c3.52,0,5.09,1.93,5.09,6.24v1.1h3.58v-18.26h-3.58v1.1c0,5.08-1.87,6.07-5.09,6.07h-7.62v-12.73c0-1.63,0.56-2.57,3.43-2.57h5.62
			c6.94,0,9.54,3.55,11.84,6.68c0.46,0.63,0.91,1.24,1.37,1.8l0.63,0.77l2.43-1.62l-4.63-11.27h-31.96v3.64h1.1
			c4.03,0,4.35,1.12,4.35,2.57v30.75c0,1.51-0.33,2.86-4.35,2.86h-1.1v3.63h33.35l4.55-11.78l-2.8-1.24L1131.95,420.17z"/>
		<path class="st2" d="M1276.46,420c-2.46,6.22-4.33,7.22-7.87,7.22h-12.77c3.4-5.11,7.68-8.46,11.44-11.07
			c8.48-5.86,11.49-10.14,11.49-16.34c0-7.81-4.48-11.77-13.32-11.77c-8.76,0-13.49,5.77-13.49,11.19c0,3.42,1.44,5.63,3.68,5.63
			c1.8,0,3.63-1.26,3.63-3.68c0-1.17-0.41-1.78-0.78-2.33c-0.36-0.53-0.71-1.03-0.71-2.66c0-4.14,5.66-4.47,7.39-4.47
			c5.17,0,7.68,2.42,7.68,7.39c0,4.14-1.02,7.02-6.61,11.28c-5.32,3.93-12.21,10.92-15.57,18.75l-0.04,0.09l-0.06,3.22h25.75
			l3.5-12.52l-2.98-0.86L1276.46,420z"/>
		<path class="st2" d="M1345.74,388.04c-9.6,0-15.32,8.49-15.32,22.72c0,14.09,5.73,22.5,15.32,22.5c11.34,0,15.39-11.62,15.39-22.5
			C1361.12,396.53,1355.37,388.04,1345.74,388.04z M1345.74,391.78c8.89,0,9.58,14.53,9.58,18.98c0,9.07-2.52,18.75-9.58,18.75
			c-6.97,0-9.45-9.69-9.45-18.75C1336.28,406.31,1336.97,391.78,1345.74,391.78z"/>
		<path class="st2" d="M1426.9,388.04c-9.6,0-15.32,8.49-15.32,22.72c0,14.09,5.73,22.5,15.32,22.5c11.34,0,15.39-11.62,15.39-22.5
			C1442.28,396.53,1436.53,388.04,1426.9,388.04z M1426.9,391.78c8.89,0,9.58,14.53,9.58,18.98c0,9.07-2.52,18.75-9.58,18.75
			c-6.97,0-9.45-9.69-9.45-18.75C1417.44,406.31,1418.12,391.78,1426.9,391.78z"/>
		<path class="st2" d="M1514.26,409.11c4.19-2.09,6.66-5.75,6.66-9.99c0-6.9-4.72-11.02-12.63-11.02c-8.83,0-12.8,5.27-12.8,9.02
			c0,2.88,1.97,4.2,3.79,4.2c1.61,0,3.33-1.66,3.33-4.14c0-0.33-0.05-0.72-0.1-1.12l-0.02-0.13c-0.06-0.46-0.12-0.9-0.12-1.34
			c0-1.02,0-2.91,5.9-2.91c5.83,0,6.7,4.67,6.7,7.45c0,5.28-3.35,8.21-9.42,8.25c-0.71-0.19-1.28-0.23-1.64-0.23
			c-1.32,0-2.13,0.79-2.13,2.08c0,1.35,0.88,2.19,2.3,2.19c0.46,0,1.01-0.12,1.67-0.27l0.05-0.02c6.74,0.09,10.16,2.96,10.16,8.54
			c0,3.05-0.87,10.14-8.94,10.14c-5.19,0-5.9-2.06-5.9-4.29c0-0.5,0.03-0.99,0.07-1.47l0.02-0.3c0.02-0.33,0.04-0.65,0.04-0.93
			c0-2.45-1.87-3.91-3.68-3.91c-1.83,0-3.8,1.35-3.8,4.31c0,4.89,4.15,10.16,13.26,10.16c11.05,0,14.98-7.09,14.98-13.72
			C1522.01,415.91,1519.94,411.31,1514.26,409.11z"/>
	</g>
	<path class="st3" d="M771.22,364.44v-7.62h9.53v-28.29h-7.81v-6.15l0.82-0.15c3.96-0.75,6.78-1.73,9.12-3.18l0.24-0.15h6.43v37.93
		h8.52v7.62H771.22z"/>
	<path class="st3" d="M772.22,357.82h9.53v-30.29h-7.81v-4.32c4.08-0.77,6.98-1.77,9.47-3.31h5.15v37.93h8.52v5.62h-24.85V357.82z"
		/>
	<path class="st3" d="M895.95,367.98v-19.09h8.15v12.13h29.82v6.97H895.95z M923.7,354.68V313.5h8.09v15.92h7.57v7.03h-7.57v18.23
		H923.7z M889.92,345.38v-27.26h27.03v27.26H889.92z M908.97,338.48v-13.45h-11.01v13.45H908.97z"/>
	<path class="st3" d="M915.95,344.38h-25.03v-25.26h25.03V344.38z M909.97,324.03h-13.01v15.45h13.01V324.03z M903.11,362.02h29.82
		v4.97h-35.97v-17.09h6.15V362.02z M938.37,330.42v5.03h-7.57v18.23h-6.09V314.5h6.09v15.92H938.37z"/>
	<path class="st3" d="M975.89,368.99c-11.89,0-18.99-4.2-18.99-11.23s7.1-11.23,18.99-11.23c11.93,0,19.05,4.2,19.05,11.23
		S987.81,368.99,975.89,368.99z M975.89,353.32c-6.82,0-10.89,1.66-10.89,4.44c0,2.86,3.97,4.5,10.89,4.5
		c6.96,0,10.95-1.64,10.95-4.5C986.84,354.98,982.74,353.32,975.89,353.32z M986.6,347.04v-7.69h-9.13v4.26h-26.73v-26.08h26.73
		v4.26h9.13v-8.23h8.09v33.48H986.6z M969.56,336.76v-12.37h-10.84v12.37H969.56z M986.6,332.38v-3.63h-9.13v3.63H986.6z"/>
	<path class="st3" d="M976.48,342.61h-24.73v-24.08h24.73v4.26h11.13v-8.23h6.09v31.48h-6.09v-7.69h-11.13V342.61z M970.56,323.38
		h-12.84v14.37h12.84V323.38z M993.94,357.76c0,6.45-6.87,10.23-18.05,10.23c-11.13,0-17.99-3.79-17.99-10.23
		c0-6.45,6.86-10.23,17.99-10.23C987.07,347.52,993.94,351.31,993.94,357.76z M987.84,357.76c0-3.49-4.37-5.44-11.95-5.44
		c-7.57,0-11.89,1.95-11.89,5.44c0,3.55,4.32,5.5,11.89,5.5C983.46,363.26,987.84,361.3,987.84,357.76z M976.48,327.76v5.63h11.13
		v-5.63H976.48z"/>
	<path class="st3" d="M1046.6,369.11V313.5h8.15v55.61H1046.6z M1025.3,357.16c-8.81,0-14.73-7.99-14.73-19.87
		c0-11.67,6.06-19.81,14.73-19.81c8.71,0,14.79,8.15,14.79,19.81C1040.08,349.17,1034.14,357.16,1025.3,357.16z M1025.3,324.97
		c-4.11,0-6.87,4.95-6.87,12.31c0,7.55,2.7,12.43,6.87,12.43c4.21,0,6.93-4.88,6.93-12.43
		C1032.22,329.8,1029.5,324.97,1025.3,324.97z"/>
	<path class="st3" d="M1039.08,337.28c0,11.6-5.8,18.87-13.79,18.87c-7.93,0-13.73-7.27-13.73-18.87c0-11.47,5.8-18.81,13.73-18.81
		C1033.28,318.47,1039.08,325.81,1039.08,337.28z M1017.42,337.28c0,8.41,3.26,13.43,7.87,13.43c4.67,0,7.93-5.03,7.93-13.43
		c0-8.28-3.25-13.31-7.93-13.31C1020.68,323.97,1017.42,329,1017.42,337.28z M1053.76,314.5v53.61h-6.15V314.5H1053.76z"/>
	<path class="st3" d="M1101.1,367.98v-18.86h8.15v11.89h29.87v6.97H1101.1z M1129.8,355.32V332.6h-10.83v-7.03h10.83v-12.01h8.09
		v41.76H1129.8z M1090.96,341.92l1.23-0.43c7.47-2.65,12.29-9.5,12.29-17.46v-7.21h8.21v7.33c0,7.17,4.64,13.49,11.83,16.1
		l1.21,0.44l-4.43,6.44l-0.73-0.27c-5.11-1.89-9.24-5.54-11.81-10.38c-2.69,5.41-7.11,9.49-12.63,11.61l-0.74,0.28L1090.96,341.92z"
		/>
	<path class="st3" d="M1120.92,345.92c-5.74-2.13-9.94-6.45-12.19-11.83c-2.37,5.97-6.81,10.71-12.96,13.07l-3.25-4.73
		c8.34-2.95,12.96-10.47,12.96-18.4v-6.21h6.21v6.33c0,7.22,4.5,14.14,12.49,17.04L1120.92,345.92z M1138.13,362.02v4.97h-36.03
		v-16.86h6.15v11.89H1138.13z M1130.8,331.6h-10.83v-5.03h10.83v-12.01h6.09v39.76h-6.09V331.6z"/>
	<path class="st3" d="M1191.1,369.05v-13.49h-30.17v-6.91h38.27v20.4H1191.1z M1191.39,348.05v-13.97h-3.91v13.61h-7.68v-33.12h7.68
		v12.55h3.91v-13.55h7.8v34.49H1191.39z M1154,345.56v-28.21h22.83v6.91h-14.91v3.62h14.32v6.73h-14.32v3.96
		c6.05-0.07,10.41-0.32,15.38-1.27l1.04-0.2l0.91,6.97l-0.93,0.17c-6.14,1.12-11.25,1.32-19.7,1.32H1154z"/>
	<path class="st3" d="M1178.13,343.26c-6.15,1.12-11.24,1.3-19.52,1.3H1155v-26.21h20.83v4.91h-14.91v5.62h14.32v4.73h-14.32v5.97
		c6.75-0.06,11.3-0.29,16.57-1.3L1178.13,343.26z M1161.93,349.65h36.27v18.4h-6.09v-13.49h-30.17V349.65z M1198.19,314.56v32.49
		h-5.8v-13.97h-5.91v13.61h-5.68v-31.12h5.68v12.55h5.91v-13.55H1198.19z"/>
	<path class="st3" d="M1220.21,367.98v-17.44h8.15v10.47h29.82v6.97H1220.21z M1247.96,355.62v-42.06h8.09v17.04h7.57v7.03h-7.57
		v17.99H1247.96z M1229.14,349.23c-8.22,0-13.95-4.57-13.95-11.11c0-6.55,5.74-11.12,13.95-11.12c8.22,0,13.96,4.57,13.96,11.12
		C1243.1,344.76,1237.49,349.23,1229.14,349.23z M1229.14,333.73c-2.95,0-6.1,1.15-6.1,4.39c0,3.23,3.15,4.38,6.1,4.38
		c2.98,0,6.16-1.15,6.16-4.38C1235.3,334.88,1232.12,333.73,1229.14,333.73z M1212.4,326.51v-6.85h12.73v-6.15h8.09v6.15h12.72v6.85
		H1212.4z"/>
	<path class="st3" d="M1244.94,325.51h-31.54v-4.85h12.73v-6.15h6.09v6.15h12.72V325.51z M1229.14,348.23
		c-7.63,0-12.95-4.02-12.95-10.11c0-6.04,5.32-10.12,12.95-10.12c7.69,0,12.96,4.08,12.96,10.12
		C1242.1,344.21,1236.83,348.23,1229.14,348.23z M1227.37,362.02h29.82v4.97h-35.97v-15.44h6.15V362.02z M1229.14,343.5
		c4.26,0,7.16-2.01,7.16-5.38c0-3.37-2.9-5.39-7.16-5.39c-4.2,0-7.1,2.01-7.1,5.39C1222.04,341.48,1224.94,343.5,1229.14,343.5z
		 M1262.63,331.6v5.03h-7.57v17.99h-6.09v-40.06h6.09v17.04H1262.63z"/>
<!--	<path class="st3" d="M1320.21,368.99c-12.33,0-19.4-3.82-19.4-10.47c0-5.87,5.61-9.65,15.44-10.46v-2.98h-21.12v-6.85h50.34v6.85-->
<!--		h-21.13v3.04c9.86,0.8,15.27,4.48,15.27,10.4C1339.61,365.18,1332.54,368.99,1320.21,368.99z M1320.21,354.68-->
<!--		c-7.11,0-11.19,1.4-11.19,3.85c0,2.38,4.18,3.79,11.19,3.79c7.04,0,11.25-1.42,11.25-3.79-->
<!--		C1331.46,356.08,1327.36,354.68,1320.21,354.68z M1339.8,337.51c-8.92-0.95-16.04-4.43-19.48-9.42c-3.48,4.99-10.6,8.47-19.47,9.42-->
<!--		l-0.72,0.08l-3.07-6.72l1.39-0.14c8.25-0.84,14.68-4.03,16.34-7.94h-15.17v-6.91h41.47v6.91h-15.29c1.66,3.92,8.09,7.1,16.34,7.94-->
<!--		l1.37,0.14l-2.99,6.72L1339.8,337.51z"/>-->
<!--	<path class="st3" d="M1323.34,344.09v4.97c9.65,0.59,15.27,3.91,15.27,9.47c0,6.04-6.86,9.47-18.4,9.47-->
<!--		c-11.48,0-18.4-3.43-18.4-9.47c0-5.56,5.74-8.93,15.44-9.53v-4.91h-21.12v-4.85h48.34v4.85H1323.34z M1298.56,331.72-->
<!--		c9.88-1.01,16.74-5.15,17.57-9.94h-15.5v-4.91h39.47v4.91h-15.62c0.83,4.79,7.69,8.93,17.57,9.94l-2.13,4.79-->
<!--		c-9.41-1.01-16.74-4.85-19.58-10.35c-2.9,5.5-10.24,9.35-19.59,10.35L1298.56,331.72z M1320.21,353.68-->
<!--		c-7.81,0-12.19,1.65-12.19,4.85c0,3.08,4.37,4.79,12.19,4.79c7.81,0,12.25-1.71,12.25-4.79-->
<!--		C1332.46,355.33,1328.02,353.68,1320.21,353.68z"/>-->
<!--	<path class="st3" d="M1355.54,362.01v-7.03h17.99v-18.81h8.15v18.81h24.14v7.03H1355.54z M1390.2,350.12l0.21-1.07-->
<!--		c1.98-10.01,2.05-17.21,2.05-23.54h-31.89v-6.97h40.05v6.27c0,6.62,0,14.11-2.09,25.27l-0.17,0.91L1390.2,350.12z"/>-->
<!--	<path class="st3" d="M1404.83,355.98v5.03h-48.28v-5.03h17.99v-18.81h6.15v18.81H1404.83z M1393.47,324.5h-31.89v-4.97h38.05v5.27-->
<!--		c0,6.63,0,14.02-2.07,25.09l-6.15-0.65c2.07-10.47,2.07-18.05,2.07-24.43V324.5z"/>-->
	<path class="st3" d="M1454.12,369.05v-31.06h-11.42v-6.97h11.42v-17.57h8.15v55.6H1454.12z M1414.98,351.72l1.12-0.55
		c7.65-3.74,12.99-13.39,12.99-23.48v-9.82h8.15v9.82c0,9.95,5.09,19.01,12.67,22.52l1.11,0.51l-4.84,6.58l-0.75-0.38
		c-5.29-2.65-9.56-7.55-12.19-13.97c-2.69,6.86-7.03,12.08-12.4,14.85l-0.73,0.38L1414.98,351.72z"/>
	<path class="st3" d="M1436.25,327.7c0,9.93,5.09,19.64,13.25,23.43l-3.61,4.91c-6.03-3.02-10.35-8.88-12.66-16.03
		c-2.37,7.57-6.75,13.78-12.84,16.92l-3.85-4.85c8.35-4.08,13.55-14.38,13.55-24.37v-8.82h6.15V327.7z M1461.27,314.45v53.6h-6.15
		v-31.06h-11.42v-4.97h11.42v-17.57H1461.27z"/>
	<path class="st3" d="M1485.42,368.34v-21.29h37.09v21.29H1485.42z M1514.53,361.49v-7.59h-21.13v7.59H1514.53z M1475.66,340.14
		l1.21-0.42c7.53-2.64,12.41-8.97,12.46-16.16h-11.3v-6.91h30.58v6.91h-11.13c0.05,6.54,4.79,12.57,11.82,15.04l1.18,0.41
		l-4.05,6.47l-0.75-0.26c-5.3-1.85-9.54-5.38-12.13-10.04c-2.76,5.34-7.27,9.29-12.9,11.23l-0.74,0.25L1475.66,340.14z
		 M1514.41,346.63v-13.14h-9.47v-6.97h9.47V313.5h8.09v33.13H1514.41z"/>
	<path class="st3" d="M1506.01,344.26c-5.92-2.07-10.24-6.21-12.49-11.41c-2.37,5.73-6.86,10.41-13.19,12.6l-3.13-4.79
		c8.28-2.9,13.13-9.94,13.13-17.22v-0.89h-11.3v-4.91h28.58v4.91h-11.13v0.89c0,6.63,4.55,13.31,12.49,16.09L1506.01,344.26z
		 M1486.42,348.05h35.09v19.29h-35.09V348.05z M1492.4,362.49h23.13v-9.59h-23.13V362.49z M1521.51,314.5v31.13h-6.09v-13.14h-9.47
		v-4.97h9.47V314.5H1521.51z"/>
	<g>
		<path class="st4" d="M292.83,317.55c-98.9,0-179.36-50.58-179.36-112.76h11.24c0,55.98,75.42,101.52,168.12,101.52
			s168.12-45.54,168.12-101.52h11.24C472.19,266.96,391.73,317.55,292.83,317.55z"/>
		<path class="st4" d="M220.1,364.69H74.76V70.23l218.07,0c0,0-21.58-70.37-72.73-70.37H74.76H0.07v121.52v243.3v70.37h292.76
			C292.83,435.05,271.25,364.69,220.1,364.69z"/>
		<path class="st4" d="M365.56,364.69H510.9V70.23l-218.07,0c0,0,21.58-70.37,72.73-70.37l145.33,0h74.7v121.52v243.3v70.37H292.83
			C292.83,435.05,314.41,364.69,365.56,364.69z"/>
		<g>
			<rect x="18.89" y="23.55" class="st5" width="6.22" height="389.72"/>
			<rect x="37.12" y="23.55" class="st5" width="6.22" height="389.72"/>
		</g>
		<g>
			<rect x="560.55" y="23.55" class="st5" width="6.22" height="389.72"/>
			<rect x="542.32" y="23.55" class="st5" width="6.22" height="389.72"/>
		</g>
		<path class="st4" d="M352.27,120.38c-30.44,0-55.57,22.69-59.44,52.08c-3.87-29.39-28.99-52.08-59.44-52.08
			c-33.12,0-59.97,26.85-59.97,59.97s26.85,59.97,59.97,59.97c30.44,0,55.57-22.69,59.44-52.08c3.87,29.39,28.99,52.08,59.44,52.08
			c33.12,0,59.97-26.85,59.97-59.97S385.39,120.38,352.27,120.38z M233.39,224.74c-24.51,0-44.39-19.87-44.39-44.39
			c0-24.51,19.87-44.39,44.39-44.39c3.14,0,6.19,0.33,9.15,0.95c-6.78,2.34-11.67,8.76-11.67,16.34c0,9.55,7.74,17.29,17.29,17.29
			s17.29-7.74,17.29-17.29c0-1.42-0.19-2.79-0.51-4.11c7.94,8.02,12.84,19.04,12.84,31.21
			C277.78,204.86,257.91,224.74,233.39,224.74z M352.27,224.74c-24.51,0-44.39-19.87-44.39-44.39c0-24.51,19.87-44.39,44.39-44.39
			c3.14,0,6.19,0.33,9.15,0.95c-6.78,2.34-11.67,8.76-11.67,16.34c0,9.55,7.74,17.29,17.29,17.29c9.55,0,17.29-7.74,17.29-17.29
			c0-1.42-0.19-2.79-0.51-4.11c7.94,8.02,12.84,19.04,12.84,31.21C396.65,204.86,376.78,224.74,352.27,224.74z"/>
	</g>
	<path class="st3" d="M828.42,318.89h-6.28l-0.25,0.16c-2.25,1.45-4.96,2.43-8.76,3.17l-0.83,0.16v6.18h7.52v28.22h-9.18v7.66h25.98
		v-7.66h-8.21V318.89z"/>
	<path class="st3" d="M863.6,334.23c-1.62,0-3.06,0.27-4.58,0.88l0.73-8.45h15.62v-7.76h-23.21l-1.35,22.13l4.24,2.9l0.58-0.39
		c2.41-1.62,3.79-2.3,6.14-2.3c4.35,0,6.94,3.01,6.94,8.07c0,4.93-2.93,8.24-7.29,8.24c-4.31,0-7.1-2.32-9.04-4.35l-0.86-0.89
		l-4.34,6.13l0.6,0.61c4.02,4.1,8.75,6.09,14.44,6.09c7.52,0,15.13-5.52,15.13-16.07C877.37,338.13,870.25,334.23,863.6,334.23z"/>
</g>
</svg>
